<?xml version="1.0" encoding="UTF-8"?>
<svg id="Capa_1" data-name="Capa 1" xmlns="http://www.w3.org/2000/svg" viewBox="0 0 101.8 101.8">
  <path d="M6.16,28.24C22.16,.18,55.22-3.37,78.42,2.27c24.25,5.89,29.66,35.41,10.27,54.11-10.82,10.44-24.42,16.26-39.38,19-8.12,1.49-17.82-3-20.55-9.27-3.36-7.73-1.37-14.58,5.11-20.09,3.1-2.64,6.23-5.73,9.96-7.05,3.37-1.19,7.58-.25,13.69-.25-8.31,5.51-14.76,8.57-19.32,13.3-2.59,2.68-3.81,8.72-2.45,12.07,1.15,2.83,6.79,5.38,10.61,5.61,18.03,1.1,43.42-18.2,47.19-35.12,1.9-8.51-4.45-18.06-14.42-20.78-18.29-4.99-35.42-.3-52.24,6.34-6.5,2.57-13.01,5.09-20.72,8.11Z"/>
  <path d="M50.13,56.06c4.39-2.07,9.69-3.29,12.93-6.44,3.43-3.34,6.92-8.7,6.49-12.82-.27-2.6-7.58-6.31-11.85-6.47-19.19-.7-45.78,12.69-50.2,36.03-1.91,10.12,1.63,16.56,12.24,20.81,13.02,5.21,26.43,4.8,39.48,.31,13.71-4.72,27.14-10.2,40.69-15.34,.63,.52,1.26,1.04,1.89,1.56-3.32,4.14-5.83,9.38-10.09,12.25-21.04,14.14-44.1,20.26-69.45,12.38C1.41,91.85-5.69,73.71,4.79,55.37c10.16-17.79,25.78-28.14,46.71-30.99,4.02-.55,8.49-.36,12.36,.74,12.38,3.52,14.99,12.53,6.82,22.04-5.21,6.07-11.21,10.67-19.63,10.98-.31-.69-.62-1.39-.93-2.08Z"/>
</svg>